#usda 1.0
(
    defaultPrim = "World"
    doc = "Generated by presentation/recolor_paths.py from mock_stress.json metric=heat_exposure. Do not hand-edit."
    metersPerUnit = 1
    upAxis = "Z"
)

over "World"
{
    over "PedestrianPaths"
    {
        over "osm_w1253425345_n11650682092_n11650682094"
        {
            color3f[] primvars:displayColor = [(0.83, 0.32, 0.172)]
        }

        over "osm_w1253425345_n11650682094_n11650682096"
        {
            color3f[] primvars:displayColor = [(0.83, 0.32, 0.172)]
        }

        over "osm_w1253425345_n11650682096_n12409633920"
        {
            color3f[] primvars:displayColor = [(0.83, 0.32, 0.172)]
        }

        over "osm_w1253425345_n12409633920_n11650682095"
        {
            color3f[] primvars:displayColor = [(0.83, 0.32, 0.172)]
        }

        over "osm_w131668736_n11650666780_n12388406513"
        {
            color3f[] primvars:displayColor = [(0.83, 0.32, 0.172)]
        }

        over "osm_w131668736_n12388329143_n11650666780"
        {
            color3f[] primvars:displayColor = [(0.83, 0.32, 0.172)]
        }

        over "osm_w131668736_n12388329148_n12388329154"
        {
            color3f[] primvars:displayColor = [(0.83, 0.32, 0.172)]
        }

        over "osm_w131668736_n12388329154_n12932620321"
        {
            color3f[] primvars:displayColor = [(0.83, 0.32, 0.172)]
        }

        over "osm_w131668736_n12388406513_n12388329148"
        {
            color3f[] primvars:displayColor = [(0.83, 0.32, 0.172)]
        }

        over "osm_w131668737_n1448891845_n1448891859"
        {
            color3f[] primvars:displayColor = [(0.83, 0.32, 0.172)]
        }

        over "osm_w131668737_n1448891859_n1448891860"
        {
            color3f[] primvars:displayColor = [(0.83, 0.32, 0.172)]
        }

        over "osm_w131668737_n4680880996_n1448891845"
        {
            color3f[] primvars:displayColor = [(0.83, 0.32, 0.172)]
        }

        over "osm_w1327147066_n12292980248_n12299677514"
        {
            color3f[] primvars:displayColor = [(0.83, 0.32, 0.172)]
        }

        over "osm_w1327147066_n12292980249_n12292980248"
        {
            color3f[] primvars:displayColor = [(0.83, 0.32, 0.172)]
        }

        over "osm_w1327147066_n12292980250_n12292980249"
        {
            color3f[] primvars:displayColor = [(0.83, 0.32, 0.172)]
        }

        over "osm_w1327147066_n12292980251_n12292980250"
        {
            color3f[] primvars:displayColor = [(0.83, 0.32, 0.172)]
        }

        over "osm_w1327147066_n12292980252_n12292980251"
        {
            color3f[] primvars:displayColor = [(0.83, 0.32, 0.172)]
        }

        over "osm_w1327147066_n12292980253_n12292980252"
        {
            color3f[] primvars:displayColor = [(0.83, 0.32, 0.172)]
        }

        over "osm_w1327147066_n12292980254_n12292980253"
        {
            color3f[] primvars:displayColor = [(0.83, 0.32, 0.172)]
        }

        over "osm_w1327147066_n12292980255_n12292980295"
        {
            color3f[] primvars:displayColor = [(0.83, 0.32, 0.172)]
        }

        over "osm_w1327147066_n12292980256_n12292980255"
        {
            color3f[] primvars:displayColor = [(0.83, 0.32, 0.172)]
        }

        over "osm_w1327147066_n12292980257_n12292980256"
        {
            color3f[] primvars:displayColor = [(0.83, 0.32, 0.172)]
        }

        over "osm_w1327147066_n12292980258_n12292980257"
        {
            color3f[] primvars:displayColor = [(0.83, 0.32, 0.172)]
        }

        over "osm_w1327147066_n12292980259_n12292980260"
        {
            color3f[] primvars:displayColor = [(0.83, 0.32, 0.172)]
        }

        over "osm_w1327147066_n12292980260_n12365328531"
        {
            color3f[] primvars:displayColor = [(0.83, 0.32, 0.172)]
        }

        over "osm_w1327147066_n12292980295_n12292980254"
        {
            color3f[] primvars:displayColor = [(0.83, 0.32, 0.172)]
        }

        over "osm_w1327147066_n12299677514_n12292980247"
        {
            color3f[] primvars:displayColor = [(0.83, 0.32, 0.172)]
        }

        over "osm_w1327147066_n12365328531_n12292980258"
        {
            color3f[] primvars:displayColor = [(0.83, 0.32, 0.172)]
        }

        over "osm_w1328706161_n12292981957_n12292981958"
        {
            color3f[] primvars:displayColor = [(0.83, 0.32, 0.172)]
        }

        over "osm_w1328706161_n12292981958_n12292981959"
        {
            color3f[] primvars:displayColor = [(0.83, 0.32, 0.172)]
        }

        over "osm_w1328706161_n12292981959_n12292981960"
        {
            color3f[] primvars:displayColor = [(0.83, 0.32, 0.172)]
        }

        over "osm_w1328706161_n12292981960_n12292981961"
        {
            color3f[] primvars:displayColor = [(0.83, 0.32, 0.172)]
        }

        over "osm_w1328706161_n12292981961_n12292981962"
        {
            color3f[] primvars:displayColor = [(0.83, 0.32, 0.172)]
        }

        over "osm_w1338916967_n12384997302_n12723986985"
        {
            color3f[] primvars:displayColor = [(0.83, 0.32, 0.172)]
        }

        over "osm_w1338916967_n12723986984_n12723986989"
        {
            color3f[] primvars:displayColor = [(0.83, 0.32, 0.172)]
        }

        over "osm_w1338916967_n12723986985_n12723986986"
        {
            color3f[] primvars:displayColor = [(0.83, 0.32, 0.172)]
        }

        over "osm_w1338916967_n12723986986_n12723986984"
        {
            color3f[] primvars:displayColor = [(0.83, 0.32, 0.172)]
        }

        over "osm_w1339799302_n12393390122_n12393390123"
        {
            color3f[] primvars:displayColor = [(0.83, 0.32, 0.172)]
        }

        over "osm_w1339799302_n12393390123_n12393390127"
        {
            color3f[] primvars:displayColor = [(0.83, 0.32, 0.172)]
        }

        over "osm_w1339799302_n12393390127_n5371271713"
        {
            color3f[] primvars:displayColor = [(0.83, 0.32, 0.172)]
        }

        over "osm_w1339802965_n12393412238_n12393412239"
        {
            color3f[] primvars:displayColor = [(0.83, 0.32, 0.172)]
        }

        over "osm_w1339802965_n12393412239_n12393412248"
        {
            color3f[] primvars:displayColor = [(0.83, 0.32, 0.172)]
        }

        over "osm_w1339802965_n12393412240_n12393412241"
        {
            color3f[] primvars:displayColor = [(0.83, 0.32, 0.172)]
        }

        over "osm_w1339802965_n12393412241_n12393412242"
        {
            color3f[] primvars:displayColor = [(0.83, 0.32, 0.172)]
        }

        over "osm_w1339802965_n12393412242_n11650666774"
        {
            color3f[] primvars:displayColor = [(0.83, 0.32, 0.172)]
        }

        over "osm_w1339802965_n12393412248_n12393412240"
        {
            color3f[] primvars:displayColor = [(0.83, 0.32, 0.172)]
        }

        over "osm_w1339806112_n12393467742_n12393471474"
        {
            color3f[] primvars:displayColor = [(0.83, 0.32, 0.172)]
        }

        over "osm_w1339806112_n12393471471_n12393467742"
        {
            color3f[] primvars:displayColor = [(0.83, 0.32, 0.172)]
        }

        over "osm_w1339818157_n12393556868_n12393556871"
        {
            color3f[] primvars:displayColor = [(0.83, 0.32, 0.172)]
        }

        over "osm_w1339818157_n12393556871_n12292980259"
        {
            color3f[] primvars:displayColor = [(0.83, 0.32, 0.172)]
        }

        over "osm_w1339847627_n12393855006_n13840037579"
        {
            color3f[] primvars:displayColor = [(0.83, 0.32, 0.172)]
        }

        over "osm_w1339847627_n12393855007_n13840037577"
        {
            color3f[] primvars:displayColor = [(0.83, 0.32, 0.172)]
        }

        over "osm_w1339847627_n12393855011_n12393855006"
        {
            color3f[] primvars:displayColor = [(0.83, 0.32, 0.172)]
        }

        over "osm_w1339847627_n13840037577_n12393855012"
        {
            color3f[] primvars:displayColor = [(0.83, 0.32, 0.172)]
        }

        over "osm_w1339847627_n13840037579_n12393855007"
        {
            color3f[] primvars:displayColor = [(0.83, 0.32, 0.172)]
        }

        over "osm_w1340351255_n12398421787_n12363291002"
        {
            color3f[] primvars:displayColor = [(0.83, 0.32, 0.172)]
        }

        over "osm_w1340351255_n12398421788_n12398421787"
        {
            color3f[] primvars:displayColor = [(0.83, 0.32, 0.172)]
        }

        over "osm_w1340351255_n12398421789_n12398421788"
        {
            color3f[] primvars:displayColor = [(0.83, 0.32, 0.172)]
        }

        over "osm_w1340351255_n12398421790_n12398421789"
        {
            color3f[] primvars:displayColor = [(0.83, 0.32, 0.172)]
        }

        over "osm_w1340351255_n12398421791_n12398421790"
        {
            color3f[] primvars:displayColor = [(0.83, 0.32, 0.172)]
        }

        over "osm_w1341547864_n12409499683_n12409499684"
        {
            color3f[] primvars:displayColor = [(0.83, 0.32, 0.172)]
        }

        over "osm_w1341547864_n12409499684_n12409499686"
        {
            color3f[] primvars:displayColor = [(0.83, 0.32, 0.172)]
        }

        over "osm_w1341564519_n12409633932_n12409633935"
        {
            color3f[] primvars:displayColor = [(0.83, 0.32, 0.172)]
        }

        over "osm_w1341564519_n12409633935_n12409633936"
        {
            color3f[] primvars:displayColor = [(0.83, 0.32, 0.172)]
        }

        over "osm_w1341564519_n12409633936_n11666838657"
        {
            color3f[] primvars:displayColor = [(0.83, 0.32, 0.172)]
        }

        over "osm_w1341564519_n8972731438_n12409633932"
        {
            color3f[] primvars:displayColor = [(0.83, 0.32, 0.172)]
        }

        over "osm_w1476454015_n12393390129_n13543059311"
        {
            color3f[] primvars:displayColor = [(0.83, 0.32, 0.172)]
        }

        over "osm_w1515768955_n13830469817_n13842100294"
        {
            color3f[] primvars:displayColor = [(0.83, 0.32, 0.172)]
        }

        over "osm_w1515768955_n13842100294_n13842100295"
        {
            color3f[] primvars:displayColor = [(0.83, 0.32, 0.172)]
        }

        over "osm_w1515768955_n13842100295_n13842100296"
        {
            color3f[] primvars:displayColor = [(0.83, 0.32, 0.172)]
        }

        over "osm_w1515768955_n13842100296_n13842100297"
        {
            color3f[] primvars:displayColor = [(0.83, 0.32, 0.172)]
        }

        over "osm_w1515768955_n13842100297_n13842100298"
        {
            color3f[] primvars:displayColor = [(0.83, 0.32, 0.172)]
        }

        over "osm_w1515768955_n13842100298_n13842100299"
        {
            color3f[] primvars:displayColor = [(0.83, 0.32, 0.172)]
        }

        over "osm_w1515768955_n13842100299_n13842100300"
        {
            color3f[] primvars:displayColor = [(0.83, 0.32, 0.172)]
        }

        over "osm_w1515768955_n13842100300_n12277849292"
        {
            color3f[] primvars:displayColor = [(0.83, 0.32, 0.172)]
        }

        over "osm_w1515821919_n13842516737_n13842516738"
        {
            color3f[] primvars:displayColor = [(0.83, 0.32, 0.172)]
        }

        over "osm_w1515821919_n13842516738_n13842516739"
        {
            color3f[] primvars:displayColor = [(0.83, 0.32, 0.172)]
        }

        over "osm_w177478735_n12393556854_n889216372"
        {
            color3f[] primvars:displayColor = [(0.83, 0.32, 0.172)]
        }

        over "osm_w177478735_n12750120187_n889094129"
        {
            color3f[] primvars:displayColor = [(0.83, 0.32, 0.172)]
        }

        over "osm_w177478735_n1879146440_n257810107"
        {
            color3f[] primvars:displayColor = [(0.83, 0.32, 0.172)]
        }

        over "osm_w177478735_n257810075_n257810076"
        {
            color3f[] primvars:displayColor = [(0.83, 0.32, 0.172)]
        }

        over "osm_w177478735_n257810076_n889094064"
        {
            color3f[] primvars:displayColor = [(0.83, 0.32, 0.172)]
        }

        over "osm_w177478735_n257810077_n257810078"
        {
            color3f[] primvars:displayColor = [(0.83, 0.32, 0.172)]
        }

        over "osm_w177478735_n257810078_n889094118"
        {
            color3f[] primvars:displayColor = [(0.83, 0.32, 0.172)]
        }

        over "osm_w177478735_n257810079_n257810082"
        {
            color3f[] primvars:displayColor = [(0.83, 0.32, 0.172)]
        }

        over "osm_w177478735_n257810082_n257810083"
        {
            color3f[] primvars:displayColor = [(0.83, 0.32, 0.172)]
        }

        over "osm_w177478735_n257810083_n889094053"
        {
            color3f[] primvars:displayColor = [(0.83, 0.32, 0.172)]
        }

        over "osm_w177478735_n257810084_n257810085"
        {
            color3f[] primvars:displayColor = [(0.83, 0.32, 0.172)]
        }

        over "osm_w177478735_n257810085_n257810102"
        {
            color3f[] primvars:displayColor = [(0.83, 0.32, 0.172)]
        }

        over "osm_w177478735_n257810089_n889094068"
        {
            color3f[] primvars:displayColor = [(0.83, 0.32, 0.172)]
        }

        over "osm_w177478735_n257810090_n12750120187"
        {
            color3f[] primvars:displayColor = [(0.83, 0.32, 0.172)]
        }

        over "osm_w177478735_n257810091_n1879146439"
        {
            color3f[] primvars:displayColor = [(0.83, 0.32, 0.172)]
        }

        over "osm_w177478735_n257810095_n889094114"
        {
            color3f[] primvars:displayColor = [(0.83, 0.32, 0.172)]
        }

        over "osm_w177478735_n257810096_n257810097"
        {
            color3f[] primvars:displayColor = [(0.83, 0.32, 0.172)]
        }

        over "osm_w177478735_n257810097_n257810098"
        {
            color3f[] primvars:displayColor = [(0.83, 0.32, 0.172)]
        }

        over "osm_w177478735_n257810098_n12393556854"
        {
            color3f[] primvars:displayColor = [(0.83, 0.32, 0.172)]
        }

        over "osm_w177478735_n257810102_n257810089"
        {
            color3f[] primvars:displayColor = [(0.83, 0.32, 0.172)]
        }

        over "osm_w177478735_n257810107_n257810095"
        {
            color3f[] primvars:displayColor = [(0.83, 0.32, 0.172)]
        }

        over "osm_w177478735_n889094053_n257810084"
        {
            color3f[] primvars:displayColor = [(0.83, 0.32, 0.172)]
        }

        over "osm_w177478735_n889094064_n257810077"
        {
            color3f[] primvars:displayColor = [(0.83, 0.32, 0.172)]
        }

        over "osm_w177478735_n889094068_n257810090"
        {
            color3f[] primvars:displayColor = [(0.83, 0.32, 0.172)]
        }

        over "osm_w177478735_n889094114_n257810096"
        {
            color3f[] primvars:displayColor = [(0.83, 0.32, 0.172)]
        }

        over "osm_w177478735_n889094118_n257810079"
        {
            color3f[] primvars:displayColor = [(0.83, 0.32, 0.172)]
        }

        over "osm_w177478735_n889094129_n257810091"
        {
            color3f[] primvars:displayColor = [(0.83, 0.32, 0.172)]
        }

        over "osm_w177478735_n889216372_n257810075"
        {
            color3f[] primvars:displayColor = [(0.83, 0.32, 0.172)]
        }

        over "osm_w23231484_n1230374486_n7523542946"
        {
            color3f[] primvars:displayColor = [(0.83, 0.32, 0.172)]
        }

        over "osm_w23231484_n1230374681_n7523561494"
        {
            color3f[] primvars:displayColor = [(0.83, 0.32, 0.172)]
        }

        over "osm_w23231484_n1455621441_n7523561489"
        {
            color3f[] primvars:displayColor = [(0.83, 0.32, 0.172)]
        }

        over "osm_w23231484_n251336398_n7523542984"
        {
            color3f[] primvars:displayColor = [(0.83, 0.32, 0.172)]
        }

        over "osm_w23231484_n7523542944_n1230374486"
        {
            color3f[] primvars:displayColor = [(0.83, 0.32, 0.172)]
        }

        over "osm_w23231484_n7523542946_n251336398"
        {
            color3f[] primvars:displayColor = [(0.83, 0.32, 0.172)]
        }

        over "osm_w23231484_n7523542984_n1455621441"
        {
            color3f[] primvars:displayColor = [(0.83, 0.32, 0.172)]
        }

        over "osm_w23231484_n7523561489_n7523561490"
        {
            color3f[] primvars:displayColor = [(0.83, 0.32, 0.172)]
        }

        over "osm_w23231484_n7523561490_n7523561491"
        {
            color3f[] primvars:displayColor = [(0.83, 0.32, 0.172)]
        }

        over "osm_w23231484_n7523561491_n7523561492"
        {
            color3f[] primvars:displayColor = [(0.83, 0.32, 0.172)]
        }

        over "osm_w23231484_n7523561492_n1230374681"
        {
            color3f[] primvars:displayColor = [(0.83, 0.32, 0.172)]
        }

        over "osm_w23231484_n7523561494_n7523561495"
        {
            color3f[] primvars:displayColor = [(0.83, 0.32, 0.172)]
        }

        over "osm_w23231484_n7523561495_n251336399"
        {
            color3f[] primvars:displayColor = [(0.83, 0.32, 0.172)]
        }

        over "osm_w61156104_n764870824_n764870850"
        {
            color3f[] primvars:displayColor = [(0.83, 0.32, 0.172)]
        }

        over "osm_w61156104_n764870832_n764870824"
        {
            color3f[] primvars:displayColor = [(0.83, 0.32, 0.172)]
        }

        over "osm_w61156104_n764870840_n764870864"
        {
            color3f[] primvars:displayColor = [(0.83, 0.32, 0.172)]
        }

        over "osm_w61156104_n764870842_n764870865"
        {
            color3f[] primvars:displayColor = [(0.83, 0.32, 0.172)]
        }

        over "osm_w61156104_n764870849_n764870840"
        {
            color3f[] primvars:displayColor = [(0.83, 0.32, 0.172)]
        }

        over "osm_w61156104_n764870850_n764870842"
        {
            color3f[] primvars:displayColor = [(0.83, 0.32, 0.172)]
        }

        over "osm_w61156104_n764870864_n764870855"
        {
            color3f[] primvars:displayColor = [(0.83, 0.32, 0.172)]
        }

        over "osm_w61156104_n764870865_n8998120945"
        {
            color3f[] primvars:displayColor = [(0.83, 0.32, 0.172)]
        }

        over "osm_w61156104_n8998120945_n764870849"
        {
            color3f[] primvars:displayColor = [(0.83, 0.32, 0.172)]
        }

        over "osm_w75818729_n12923018660_n869389500"
        {
            color3f[] primvars:displayColor = [(0.83, 0.32, 0.172)]
        }

        over "osm_w75818729_n869389489_n895178679"
        {
            color3f[] primvars:displayColor = [(0.83, 0.32, 0.172)]
        }

        over "osm_w75818729_n869389495_n895178432"
        {
            color3f[] primvars:displayColor = [(0.83, 0.32, 0.172)]
        }

        over "osm_w75818729_n869389500_n869389495"
        {
            color3f[] primvars:displayColor = [(0.83, 0.32, 0.172)]
        }

        over "osm_w75818729_n869389545_n869389583"
        {
            color3f[] primvars:displayColor = [(0.83, 0.32, 0.172)]
        }

        over "osm_w75818729_n869389547_n869389545"
        {
            color3f[] primvars:displayColor = [(0.83, 0.32, 0.172)]
        }

        over "osm_w75818729_n869389567_n12923018660"
        {
            color3f[] primvars:displayColor = [(0.83, 0.32, 0.172)]
        }

        over "osm_w75818729_n869389583_n869389489"
        {
            color3f[] primvars:displayColor = [(0.83, 0.32, 0.172)]
        }

        over "osm_w75818729_n895178432_n869389547"
        {
            color3f[] primvars:displayColor = [(0.83, 0.32, 0.172)]
        }

        over "osm_w825631926_n7555011011_n7708993471"
        {
            color3f[] primvars:displayColor = [(0.83, 0.32, 0.172)]
        }

        over "osm_w825631926_n7708993463_n7708993465"
        {
            color3f[] primvars:displayColor = [(0.83, 0.32, 0.172)]
        }

        over "osm_w825631926_n7708993464_n7708993469"
        {
            color3f[] primvars:displayColor = [(0.83, 0.32, 0.172)]
        }

        over "osm_w825631926_n7708993465_n7708993466"
        {
            color3f[] primvars:displayColor = [(0.83, 0.32, 0.172)]
        }

        over "osm_w825631926_n7708993468_n7799409178"
        {
            color3f[] primvars:displayColor = [(0.83, 0.32, 0.172)]
        }

        over "osm_w825631926_n7708993469_n7708993468"
        {
            color3f[] primvars:displayColor = [(0.83, 0.32, 0.172)]
        }

        over "osm_w825631926_n7708993470_n7708993463"
        {
            color3f[] primvars:displayColor = [(0.83, 0.32, 0.172)]
        }

        over "osm_w825631926_n7708993471_n7708993464"
        {
            color3f[] primvars:displayColor = [(0.83, 0.32, 0.172)]
        }

        over "osm_w825631926_n7799409178_n7799480588"
        {
            color3f[] primvars:displayColor = [(0.83, 0.32, 0.172)]
        }

        over "osm_w825631926_n7799480588_n7708993470"
        {
            color3f[] primvars:displayColor = [(0.83, 0.32, 0.172)]
        }

        over "osm_w969615133_n13838008660_n8972724038"
        {
            color3f[] primvars:displayColor = [(0.83, 0.32, 0.172)]
        }

        over "osm_w969615133_n8972724018_n8972724028"
        {
            color3f[] primvars:displayColor = [(0.83, 0.32, 0.172)]
        }

        over "osm_w969615133_n8972724028_n8972724029"
        {
            color3f[] primvars:displayColor = [(0.83, 0.32, 0.172)]
        }

        over "osm_w969615133_n8972724029_n8972724030"
        {
            color3f[] primvars:displayColor = [(0.83, 0.32, 0.172)]
        }

        over "osm_w969615133_n8972724030_n8972724031"
        {
            color3f[] primvars:displayColor = [(0.83, 0.32, 0.172)]
        }

        over "osm_w969615133_n8972724031_n8972724032"
        {
            color3f[] primvars:displayColor = [(0.83, 0.32, 0.172)]
        }

        over "osm_w969615133_n8972724032_n8972724033"
        {
            color3f[] primvars:displayColor = [(0.83, 0.32, 0.172)]
        }

        over "osm_w969615133_n8972724033_n8972724034"
        {
            color3f[] primvars:displayColor = [(0.83, 0.32, 0.172)]
        }

        over "osm_w969615133_n8972724034_n13838008660"
        {
            color3f[] primvars:displayColor = [(0.83, 0.32, 0.172)]
        }

        over "osm_w970347258_n12507067532_n8979782877"
        {
            color3f[] primvars:displayColor = [(0.83, 0.32, 0.172)]
        }
    }
}

